<svg width="178" height="150" viewBox="0 0 178 150" fill="none" xmlns="http://www.w3.org/2000/svg">
<path d="M175.114 38.1453C175.114 76.7707 144.839 108.056 107.526 108.056C70.2133 108.056 39.9386 76.7707 39.9386 38.1453C39.9386 -0.480124 70.2133 -31.7653 107.526 -31.7653C144.839 -31.7653 175.114 -0.480124 175.114 38.1453Z" stroke="#F4BAC0" stroke-width="0.931925"/>
<path d="M162.55 38.1456C162.55 69.6744 137.851 95.1189 107.523 95.1189C77.1942 95.1189 52.4953 69.6744 52.4953 38.1456C52.4953 6.61684 77.1942 -18.8277 107.523 -18.8277C137.851 -18.8277 162.55 6.61684 162.55 38.1456Z" stroke="#F4BAC0" stroke-width="3.96719" stroke-miterlimit="10"/>
<path d="M156.878 38.1452C156.878 66.3569 134.767 89.2001 107.524 89.2001C80.2805 89.2001 58.1691 66.3569 58.1691 38.1452C58.1691 9.93343 80.2805 -12.9098 107.524 -12.9098C134.767 -12.9098 156.878 9.93343 156.878 38.1452Z" stroke="#F4BAC0" stroke-width="0.931925"/>
<path d="M159.871 -15.9895C188.795 13.9215 188.795 62.4168 159.871 92.3278C130.947 122.239 84.0526 122.239 55.1289 92.3278C26.2051 62.4168 26.2051 13.9215 55.1289 -15.9895C84.0527 -45.9005 130.947 -45.9005 159.871 -15.9895Z" stroke="#F4BAC0" stroke-width="3.96719" stroke-miterlimit="10"/>
<path d="M168.372 38.1476C168.372 73.001 141.067 101.141 107.523 101.141C73.98 101.141 46.675 73.001 46.675 38.1476C46.675 3.29432 73.98 -24.8453 107.523 -24.8453C141.067 -24.8453 168.372 3.29433 168.372 38.1476Z" stroke="#F4BAC0" stroke-width="3.96719" stroke-miterlimit="10"/>
<path d="M143.892 38.1462C143.892 59.0169 127.548 75.8213 107.526 75.8213C87.5033 75.8213 71.1594 59.0169 71.1594 38.1462C71.1594 17.2755 87.5033 0.471112 107.526 0.471112C127.548 0.471112 143.892 17.2755 143.892 38.1462Z" stroke="#F4BAC0" stroke-width="3.96719" stroke-miterlimit="10"/>
<path d="M127.539 38.1444C127.539 49.677 118.516 58.9115 107.523 58.9115C96.5308 58.9115 87.507 49.677 87.507 38.1444C87.507 26.6118 96.5308 17.3774 107.523 17.3774C118.516 17.3774 127.539 26.6118 127.539 38.1444Z" stroke="#F4BAC0" stroke-width="3.96719" stroke-miterlimit="10"/>
<path d="M129.185 15.7463C141.16 28.1301 141.16 48.2082 129.185 60.592C117.21 72.9758 97.7945 72.9758 85.8194 60.592C73.8444 48.2082 73.8444 28.1301 85.8194 15.7463C97.7945 3.36251 117.21 3.36251 129.185 15.7463Z" stroke="#F4BAC0" stroke-width="3.96719" stroke-miterlimit="10"/>
</svg>
