<svg width="215" height="223" viewBox="0 0 215 223" fill="none" xmlns="http://www.w3.org/2000/svg">
<path d="M175.114 111.145C175.114 149.771 144.839 181.056 107.526 181.056C70.2133 181.056 39.9386 149.771 39.9386 111.145C39.9386 72.5198 70.2133 41.2347 107.526 41.2347C144.839 41.2347 175.114 72.5198 175.114 111.145Z" stroke="#F7B6C0" stroke-width="0.931925"/>
<path d="M162.55 111.146C162.55 142.674 137.851 168.119 107.523 168.119C77.1942 168.119 52.4953 142.674 52.4953 111.146C52.4953 79.6168 77.1942 54.1723 107.523 54.1723C137.851 54.1723 162.55 79.6168 162.55 111.146Z" stroke="#F7B6C0" stroke-width="3.96719" stroke-miterlimit="10"/>
<path d="M156.878 111.145C156.878 139.357 134.767 162.2 107.524 162.2C80.2805 162.2 58.1691 139.357 58.1691 111.145C58.1691 82.9334 80.2805 60.0902 107.524 60.0902C134.767 60.0902 156.878 82.9334 156.878 111.145Z" stroke="#F7B6C0" stroke-width="0.931925"/>
<path d="M159.871 57.0105C188.795 86.9215 188.795 135.417 159.871 165.328C130.947 195.239 84.0526 195.239 55.1289 165.328C26.2051 135.417 26.2051 86.9215 55.1289 57.0105C84.0527 27.0995 130.947 27.0995 159.871 57.0105Z" stroke="#F7B6C0" stroke-width="3.96719" stroke-miterlimit="10"/>
<path d="M168.372 111.148C168.372 146.001 141.067 174.141 107.523 174.141C73.98 174.141 46.675 146.001 46.675 111.148C46.675 76.2943 73.98 48.1547 107.523 48.1547C141.067 48.1547 168.372 76.2943 168.372 111.148Z" stroke="#F7B6C0" stroke-width="3.96719" stroke-miterlimit="10"/>
<path d="M143.892 111.146C143.892 132.017 127.548 148.821 107.526 148.821C87.5033 148.821 71.1594 132.017 71.1594 111.146C71.1594 90.2755 87.5033 73.4711 107.526 73.4711C127.548 73.4711 143.892 90.2755 143.892 111.146Z" stroke="#F7B6C0" stroke-width="3.96719" stroke-miterlimit="10"/>
<path d="M127.539 111.144C127.539 122.677 118.516 131.911 107.523 131.911C96.5308 131.911 87.507 122.677 87.507 111.144C87.507 99.6118 96.5308 90.3773 107.523 90.3773C118.516 90.3773 127.539 99.6118 127.539 111.144Z" stroke="#F7B6C0" stroke-width="3.96719" stroke-miterlimit="10"/>
<path d="M129.185 88.7463C141.16 101.13 141.16 121.208 129.185 133.592C117.21 145.976 97.7945 145.976 85.8194 133.592C73.8444 121.208 73.8444 101.13 85.8194 88.7463C97.7945 76.3625 117.21 76.3625 129.185 88.7463Z" stroke="#F7B6C0" stroke-width="3.96719" stroke-miterlimit="10"/>
</svg>
